<svg width="114" height="94" viewBox="0 0 114 94" fill="none" xmlns="http://www.w3.org/2000/svg">
<path d="M113.342 46.7416C113.342 48.2782 112.671 49.692 111.45 50.8604L70.9228 91.6788C69.6411 92.8472 68.3593 93.3388 66.9555 93.3388C63.9037 93.3388 61.5844 91.1261 61.5844 88.0523C61.5844 86.6384 62.1337 85.1629 63.1106 84.179L76.7212 70.1632L97.351 51.2903L82.5195 52.2742H5.37122C2.19747 52.2742 -2.28882e-05 49.9382 -2.28882e-05 46.7416C-2.28882e-05 43.545 2.19747 41.27 5.37122 41.27H82.5195L97.29 42.1922L76.7212 23.3197L63.1106 9.3651C62.0725 8.32001 61.5844 6.9061 61.5844 5.43075C61.5844 2.41848 63.9037 0.143921 66.9555 0.143921C68.3593 0.143921 69.7021 0.697186 71.0449 1.98816L111.45 42.6228C112.671 43.8522 113.342 45.266 113.342 46.7416Z" fill="black"/>
</svg>
