<svg width="89" height="100" viewBox="0 0 89 100" fill="none" xmlns="http://www.w3.org/2000/svg">
<path d="M88.8892 0L80.5545 90.2771L44.444 100L8.33291 90.2771L0 0H88.8892ZM72.0944 18.3564H44.4115H16.2382L17.5856 29.2582H44.4115H45.9184L44.4115 29.8854L18.566 40.6499L19.4232 51.3061L44.4115 51.3871L57.8045 51.4296L56.9472 65.6382L44.4113 69.1676V69.1564L44.3086 69.185L32.2021 66.1288L31.4674 57.3088H31.4273H20.1979H20.1584L21.6283 74.3357L44.4117 81.0733V81.0612L44.4528 81.0733L67.1142 74.4584L70.0537 40.6499H44.4117H44.3485L44.4117 40.6225L70.993 29.2582L72.0944 18.3564Z" fill="black"/>
</svg>
