<svg width="89" height="100" viewBox="0 0 89 100" fill="none" xmlns="http://www.w3.org/2000/svg">
<path d="M1.52892 0C0.609839 0 -0.0749566 0.748964 0.00659057 1.66436L7.75491 88.5746C7.83646 89.49 8.62753 90.4402 9.51352 90.6862L42.3934 99.8154C43.2791 100.061 44.7282 100.061 45.6142 99.8161L78.594 90.6718C79.4797 90.4261 80.2718 89.476 80.3533 88.5609L88.1143 1.66436C88.1965 0.748964 87.5111 0 86.592 0H1.52892ZM71.6134 19.9326C71.5402 20.7491 71.4135 22.1665 71.332 23.0819L71.1278 25.3622C71.0455 26.2772 70.9286 27.586 70.8668 28.2701C70.8053 28.9546 70.7468 29.5144 70.7361 29.5144C70.7257 29.5144 69.965 29.5144 69.046 29.5144H45.7315C44.8124 29.5144 44.0528 29.5144 44.0427 29.5144C44.0327 29.5144 43.2724 29.5144 42.3533 29.5144H30.0744C29.1554 29.5144 28.4706 30.2634 28.5521 31.1788L29.2683 39.1848C29.3499 40.0998 30.169 40.8491 31.0881 40.8491H42.3536C43.2727 40.8491 44.033 40.8491 44.0431 40.8491C44.0531 40.8491 44.8128 40.8491 45.7318 40.8491H65.0956C66.0147 40.8491 67.4371 40.8491 68.2562 40.8491C69.0747 40.8491 69.6843 41.5172 69.6101 42.3337C69.5356 43.1502 69.4083 44.5679 69.3267 45.4829L67.0237 71.2933C66.9415 72.2087 66.8375 73.3781 66.7927 73.8921C66.7469 74.4058 65.9853 75.0271 65.0996 75.2727L45.671 80.6599C44.7854 80.9052 44.0494 81.1084 44.0357 81.1114C44.022 81.1144 43.2864 80.9155 42.4004 80.6699L22.9511 75.2731C22.0654 75.0274 21.274 74.0773 21.1925 73.1619L19.9405 59.11C19.859 58.1946 20.5445 57.4456 21.4635 57.4456H23.2385C24.1576 57.4456 25.6615 57.4456 26.5806 57.4456H29.2276C30.1466 57.4456 30.9651 58.1946 31.0473 59.11L31.5383 64.6108C31.6198 65.5262 32.4122 66.471 33.2999 66.7106L42.3974 69.1674C43.2844 69.407 44.0137 69.6032 44.0177 69.6032C44.0217 69.6032 44.7506 69.4067 45.6379 69.1671L54.7518 66.7043C55.6388 66.4646 56.4319 65.5195 56.5141 64.6044L57.5024 53.5835C57.5846 52.6681 56.8998 51.9192 55.9807 51.9192H45.7318C44.8128 51.9192 44.0531 51.9192 44.0431 51.9192C44.033 51.9192 43.2727 51.9192 42.3536 51.9192H20.9679C20.0488 51.9192 19.2303 51.1699 19.1488 50.2548L16.7238 23.0815C16.6422 22.1661 16.5156 20.7491 16.4424 19.9323C16.3698 19.1158 17.062 18.4477 17.9811 18.4477H42.3536C43.2727 18.4477 44.033 18.4477 44.0431 18.4477C44.0531 18.4477 44.8128 18.4477 45.7318 18.4477H70.075C70.9938 18.4477 71.6862 19.1158 71.6134 19.9326Z" fill="black"/>
</svg>
