<svg width="135" height="100" viewBox="0 0 135 100" fill="none" xmlns="http://www.w3.org/2000/svg">
<path d="M110.669 96.4198L110.798 96.1672C110.916 95.9574 111.016 95.7377 111.096 95.5107L111.107 95.4826C111.51 94.3945 111.615 93.2185 111.41 92.0763L111.416 92.1156C111.198 90.8782 110.751 89.6924 110.097 88.6195L110.125 88.6644L80.2878 36.1784L75.7311 28.2099L71.2025 36.1784L41.3821 88.6644C40.8072 89.7195 40.4199 90.8663 40.2373 92.0539L40.2317 92.1156C39.9894 93.4646 40.1454 94.855 40.6806 96.1167L40.6638 96.0718C40.7438 96.269 40.8375 96.4602 40.9444 96.6442L40.9331 96.6218C41.831 98.165 43.739 100 47.9477 100H103.492C104.373 100 108.683 99.8204 110.675 96.4254L110.669 96.4198ZM75.7255 44.1414L102.993 92.11H48.4696L75.7255 44.1414ZM133.24 88.6644L93.868 19.3042C93.464 18.5746 91.1913 14.8878 87.2351 14.8878C85.4562 14.8878 82.9028 15.6453 80.8265 19.2929L75.7367 28.2155L80.2654 36.1841L87.2799 23.771L126.231 92.1212H111.416C111.607 93.2674 111.495 94.4437 111.09 95.5331L111.107 95.4882C111.022 95.733 110.915 95.9696 110.787 96.1953L110.798 96.1728L110.675 96.4254C108.683 99.8204 104.373 100 103.531 100H126.702C127.555 100 131.848 99.8204 133.84 96.4254C134.721 94.8822 135.355 92.2896 133.24 88.67V88.6644ZM40.9724 96.6162C40.8794 96.4485 40.7951 96.2762 40.7199 96.0999L40.7087 96.0662C40.1576 94.8109 39.9935 93.4198 40.2373 92.0707L40.2317 92.1156L8.40788 92.11L55.7087 8.87767L71.2362 36.1728L75.7367 28.2043L62.2014 4.36027C61.8254 3.67565 59.5358 0 55.5964 0C53.8175 0 51.2642 0.7688 49.1879 4.41639L1.27544 88.6588C0.8714 89.3883 -1.10952 93.2155 0.854565 96.6105C1.75243 98.1538 3.6604 99.9888 7.86916 99.9888H47.9982C43.8175 99.9888 41.8815 98.1818 40.9836 96.6105L40.9724 96.6162Z" fill="black"/>
</svg>
